<?xml version="1.0" encoding="UTF-8" standalone="no"?>
<svg width="26px" height="54px" viewBox="0 0 26 54" version="1.1" xmlns="http://www.w3.org/2000/svg" xmlns:xlink="http://www.w3.org/1999/xlink" xmlns:sketch="http://www.bohemiancoding.com/sketch/ns">
    <!-- Generator: Sketch 3.5.1 (25234) - http://www.bohemiancoding.com/sketch -->
    <title>Logo</title>
    <desc>Created with Sketch.</desc>
    <defs></defs>
    <g id="Page-1" stroke="none" stroke-width="1" fill="none" fill-rule="evenodd" sketch:type="MSPage">
        <g id="Desktop-HD" sketch:type="MSArtboardGroup" transform="translate(-139.000000, -45.000000)" fill="#FFFFFF">
            <g id="sidebar" sketch:type="MSLayerGroup">
                <g id="Logo" transform="translate(139.000000, 45.000000)" sketch:type="MSShapeGroup">
                    <path d="M10.547961,53.1058566 C10.0406662,53.1058566 9.52668041,53.0569496 9.01026158,52.9573463 C5.55287099,52.2881552 3.07357401,49.5034377 2.83939115,46.0292507 C2.51579301,41.2232422 5.18973549,34.4412713 13.2219035,29.2064318 C12.0047609,24.4541018 10.3892033,20.1270242 9.33933412,17.7299843 C8.87461801,16.6683443 9.37522189,15.4379155 10.4573292,14.9816488 C11.5394365,14.5253822 12.7948999,15.0156452 13.2602243,16.0772852 C13.3520726,16.2860346 15.3976751,20.9793183 17.0625024,27.037227 C17.6537381,26.7479599 18.2662631,26.4670428 18.9000775,26.1938793 L22.0807065,24.8572864 C23.1634221,24.4022127 24.4182773,24.8936685 24.8829934,25.9559049 C25.3471012,27.0181413 24.8452808,28.2479737 23.7625652,28.7036439 L20.5977512,30.033676 C19.7151555,30.4130036 18.8775716,30.8138025 18.0868243,31.2313014 C19.7017736,38.8542344 19.4961793,44.7594577 17.4700414,48.8139682 C16.128204,51.4996788 13.462169,53.1058566 10.547961,53.1058566 L10.547961,53.1058566 Z M14.2048632,33.6736698 C9.04310801,37.5438843 6.85760407,42.1822968 7.0978696,45.7537014 C7.22743051,47.6718105 8.59785644,48.611183 9.83689667,48.8515431 C11.099051,49.093096 12.7590122,48.729872 13.6379582,46.9727981 C15.279063,43.6888713 15.1130061,38.7027419 14.2048632,33.6736698 L14.2048632,33.6736698 Z" id="Fill-1"></path>
                    <path d="M12.3745873,9.5147993 C12.3745873,11.0171988 11.1325057,12.2351027 9.60028074,12.2351027 C8.06805574,12.2351027 6.82597418,11.0171988 6.82597418,9.5147993 C6.82597418,8.01239979 8.06805574,6.79449594 9.60028074,6.79449594 C11.1325057,6.79449594 12.3745873,8.01239979 12.3745873,9.5147993" id="Fill-6"></path>
                    <path d="M5.72744367,12.5804339 C5.63742013,12.5804339 5.54678832,12.6090624 5.47136319,12.6693015 L2.96530245,14.6571926 C2.78951324,14.79616 2.76274948,15.0478522 2.90447574,15.2196232 C2.984767,15.3174372 3.10277083,15.3681335 3.2219912,15.3681335 C3.31201474,15.3681335 3.40264655,15.339505 3.47807168,15.2792659 L5.98413242,13.2913748 C6.15992163,13.1524073 6.18668538,12.9007152 6.04495913,12.7289442 C5.96466787,12.6311302 5.84666403,12.5804339 5.72744367,12.5804339 M4.69582255,11.0040774 C4.64959424,11.0040774 4.60275767,11.011831 4.55652937,11.0285309 L2.46104897,11.7752575 C2.24876373,11.8510037 2.13927564,12.0806281 2.21652557,12.2881847 C2.27674402,12.4510092 2.43367695,12.5518054 2.60034215,12.5518054 L2.73963533,12.5273519 L4.835724,11.7806253 C5.04740097,11.7054755 5.15688906,11.4758512 5.07963913,11.2676981 C5.01942068,11.10547 4.86248775,11.0040774 4.69582255,11.0040774 M15.0096007,9.23209292 C14.7973154,9.23209292 14.6172684,9.39491749 14.6026699,9.60664906 C14.5880715,9.82732703 14.7589946,10.0169908 14.9834452,10.0319015 L18.0558027,10.2281259 L18.0825664,10.2293188 C18.2960682,10.2293188 18.475507,10.0664942 18.4894972,9.85476267 C18.5040956,9.6340847 18.3337808,9.4438245 18.1087219,9.42951025 L15.0369727,9.23328578 C15.0278487,9.23268935 15.0187247,9.23209292 15.0096007,9.23209292 M0.519460163,8.42751295 C0.316298928,8.42751295 0.139901449,8.57542684 0.114354228,8.77880843 C0.0869822053,8.99829356 0.245739937,9.19750016 0.469582255,9.2249358 L4.35701774,9.69492025 L4.40811218,9.69790238 C4.61066515,9.69790238 4.78706263,9.54939207 4.81200158,9.3466069 C4.83998187,9.12712178 4.68122414,8.92731875 4.45738182,8.90047953 L0.569338071,8.43049509 C0.552914857,8.42810938 0.535883376,8.42751295 0.519460163,8.42751295 M16.1932886,6.5392252 C16.1470603,6.5392252 16.1002237,6.54697875 16.0539954,6.56308228 L14.4433039,7.13744144 C14.2310187,7.21318766 14.1221389,7.44281204 14.1987805,7.65036862 C14.2596073,7.81319319 14.4159319,7.91398934 14.5825971,7.91398934 L14.7218903,7.88953584 L16.33319,7.3157731 C16.544867,7.24002688 16.6543551,7.0104025 16.5771052,6.80284591 C16.5168867,6.64002135 16.3599538,6.5392252 16.1932886,6.5392252 M2.77491483,6.3048294 C2.6216315,6.3048294 2.47443085,6.39011846 2.40508839,6.53564664 C2.30959044,6.73604609 2.39778918,6.97402045 2.60216695,7.06765948 L4.62283049,7.9927177 C4.67879107,8.01836406 4.73718472,8.0302926 4.79557837,8.0302926 C4.94886169,8.0302926 5.09606235,7.94500354 5.1654048,7.79947537 C5.26090275,7.59907591 5.17270401,7.36110155 4.96832624,7.26746252 L2.9476627,6.3424043 C2.89170212,6.31735437 2.83270021,6.3048294 2.77491483,6.3048294 M16.312509,2.85628871 C16.2133614,2.85628871 16.1129973,2.89147791 16.0345309,2.96364557 L13.168376,5.5813635 C13.0035356,5.73225952 12.9944115,5.98514455 13.1476949,6.14677626 C13.2279861,6.23206531 13.3374742,6.27441163 13.4463541,6.27441163 C13.5461099,6.27441163 13.6458657,6.23922244 13.7249404,6.16705477 L16.5910953,3.54933684 C16.7559357,3.39844082 16.7650597,3.14495936 16.6117764,2.98332766 C16.5308769,2.89863503 16.421997,2.85628871 16.312509,2.85628871 M3.90629176,2.54555027 C3.82113436,2.54555027 3.73476042,2.57179305 3.66116009,2.62547148 C3.48111301,2.75847469 3.44522525,3.00957044 3.58026056,3.18611282 L5.65870948,5.8932948 C5.73900075,5.99766952 5.86126245,6.0525408 5.98534895,6.0525408 C6.07050635,6.0525408 6.15688029,6.02629801 6.23048062,5.97202316 C6.4105277,5.83961637 6.44641546,5.58852062 6.31138015,5.41197824 L4.23293123,2.70479627 C4.15263997,2.60042155 4.03037827,2.54555027 3.90629176,2.54555027 M12.6251934,2.35529007 C12.4713018,2.35529007 12.3241011,2.44057912 12.2547587,2.58670373 L11.3113363,4.56803409 C11.2158383,4.76843355 11.3040371,5.00640791 11.5084148,5.09945051 C11.5643754,5.12509687 11.6233773,5.13762184 11.6811627,5.13762184 C11.8344461,5.13762184 11.9816467,5.05233278 12.0509892,4.90620818 L12.9944115,2.92487782 C13.0899095,2.72507478 13.0017108,2.486504 12.797333,2.39286497 C12.7413724,2.36721861 12.6829788,2.35529007 12.6251934,2.35529007 M6.86551154,2.32964371 C6.81928324,2.32964371 6.7718384,2.33739726 6.72621836,2.35409721 C6.51393312,2.42984344 6.4050533,2.65946782 6.48169496,2.8670244 L7.24385372,4.92171528 C7.30407217,5.08453984 7.46039684,5.185336 7.62706204,5.185336 L7.76696349,5.16147892 C7.97864046,5.08573269 8.08812855,4.85670474 8.01087862,4.64855173 L7.24932813,2.59326443 C7.18910968,2.43103629 7.03217675,2.32964371 6.86551154,2.32964371 M9.67631413,0.187278066 C9.45977102,0.187278066 9.2693834,0.422270288 9.26512553,0.64175541 L9.1951748,4.65988384 C9.19091693,4.88115825 9.37035575,5.36784265 9.59602287,5.36784265 L9.60332207,5.36784265 C9.82533959,5.36784265 10.0072115,4.90799746 10.0114693,4.68970519 L10.0814201,0.591655545 C10.0856779,0.370381143 9.90623913,0.191453054 9.68057201,0.187278066 L9.67631413,0.187278066" id="Fill-8"></path>
                </g>
            </g>
        </g>
    </g>
</svg>